<svg xmlns="http://www.w3.org/2000/svg" xmlns:xlink="http://www.w3.org/1999/xlink" width="64" height="18" viewBox="0 0 64 18">
  <defs>
    <linearGradient id="linear-gradient" x1="0.412" y1="0.079" x2="0.813" y2="1.419" gradientUnits="objectBoundingBox">
      <stop offset="0.3" stop-color="#ff6e00"/>
      <stop offset="0.41" stop-color="#ff5f00"/>
      <stop offset="0.62" stop-color="#ff4900"/>
      <stop offset="0.82" stop-color="#ff3c00"/>
      <stop offset="1" stop-color="#ff3700"/>
    </linearGradient>
    <clipPath id="clip-Logotipo-WatsyD-24px">
      <rect width="64" height="18"/>
    </clipPath>
  </defs>
  <g id="Logotipo-WatsyD-24px" clip-path="url(#clip-Logotipo-WatsyD-24px)">
    <g id="Grupo_512" data-name="Grupo 512" transform="translate(0.012)">
      <path id="Trazado_92" data-name="Trazado 92" d="M64,18h0Z" fill="#fff"/>
      <g id="Grupo_512-2" data-name="Grupo 512" transform="translate(1410 -5033)">
        <g id="Watsy_Navidad_Logo_Mesa_de_trabajo_1_copia_3" data-name="Watsy Navidad Logo_Mesa de trabajo 1 copia 3" transform="translate(-1410 5033)">
          <path id="Trazado_45" data-name="Trazado 45" d="M44.877,117.72h2.5a.717.717,0,0,1,.717.717v10.188a7.541,7.541,0,0,1-1.636,5.186,5.873,5.873,0,0,1-4.629,1.839,6.068,6.068,0,0,1-2.727-.621,5.473,5.473,0,0,1-1.575-1.162.679.679,0,0,0-.988,0,5.557,5.557,0,0,1-4.259,1.783,5.885,5.885,0,0,1-4.64-1.838A7.541,7.541,0,0,1,26,128.625V125.71a.717.717,0,0,1,.717-.717h2.5a.717.717,0,0,1,.716.717v2.915a4.147,4.147,0,0,0,.647,2.5,2.168,2.168,0,0,0,1.852.876,2.266,2.266,0,0,0,1.889-.875,3.977,3.977,0,0,0,.685-2.5l.023-5.308a.717.717,0,0,1,.717-.715h2.578a.717.717,0,0,1,.717.714l.023,5.308a3.976,3.976,0,0,0,.685,2.5,2.281,2.281,0,0,0,1.9.875,2.175,2.175,0,0,0,1.864-.875,4.153,4.153,0,0,0,.647-2.5V118.437a.717.717,0,0,1,.718-.717Z" transform="translate(-25.997 -117.712)" fill="url(#linear-gradient)"/>
          <circle id="Elipse_3" data-name="Elipse 3" cx="1.965" cy="1.965" r="1.965" transform="translate(0 2.396)" fill="#ff6e00"/>
          <circle id="Elipse_4" data-name="Elipse 4" cx="1.965" cy="1.965" r="1.965" transform="translate(9.073 0)" fill="#ff6e00"/>
        </g>
        <g id="Grupo_198" data-name="Grupo 198" transform="translate(-1384.711 5036.262)">
          <path id="Trazado_46" data-name="Trazado 46" d="M9.138,0H10.5a.274.274,0,0,1,.277.271V5.209a3.553,3.553,0,0,1-.8,2.477,2.9,2.9,0,0,1-2.259.878,3.008,3.008,0,0,1-1.33-.3,2.666,2.666,0,0,1-.8-.587.286.286,0,0,0-.421,0,2.74,2.74,0,0,1-2.109.884A2.9,2.9,0,0,1,.8,7.687,3.553,3.553,0,0,1,0,5.209V.271A.274.274,0,0,1,.277,0H1.641a.274.274,0,0,1,.277.271V5.209A1.95,1.95,0,0,0,2.234,6.4a1.064,1.064,0,0,0,.9.418A1.116,1.116,0,0,0,4.059,6.4a1.87,1.87,0,0,0,.334-1.193L4.405.271A.274.274,0,0,1,4.682,0h1.4a.274.274,0,0,1,.277.271L6.371,5.21A1.87,1.87,0,0,0,6.708,6.4a1.122,1.122,0,0,0,.928.418,1.071,1.071,0,0,0,.91-.418,1.95,1.95,0,0,0,.316-1.193V.271A.274.274,0,0,1,9.138,0" fill="#232323"/>
          <path id="Trazado_47" data-name="Trazado 47" d="M155.322,29.3a3.278,3.278,0,0,1-.953-2.453,3.157,3.157,0,0,1,.978-2.429,3.225,3.225,0,0,1,2.265-.909,2.55,2.55,0,0,1,1.532.484.133.133,0,0,0,.213-.1.274.274,0,0,1,.277-.271h1.342a.247.247,0,0,1,.249.244v5.97a.307.307,0,0,1-.31.3h-1.282a.274.274,0,0,1-.277-.271h0a.133.133,0,0,0-.208-.107,2.813,2.813,0,0,1-1.6.478,3.083,3.083,0,0,1-2.228-.933m.916-2.411a1.8,1.8,0,0,0,.483,1.3,1.514,1.514,0,0,0,1.126.5,1.4,1.4,0,0,0,1.089-.5,1.882,1.882,0,0,0,.445-1.3,2,2,0,0,0-.445-1.327,1.381,1.381,0,0,0-1.1-.533,1.459,1.459,0,0,0-1.126.527,1.918,1.918,0,0,0-.47,1.327" transform="translate(-142.018 -21.67)" fill="#232323"/>
          <path id="Trazado_48" data-name="Trazado 48" d="M264.667.271V1.679a.274.274,0,0,0,.277.271H266a.274.274,0,0,1,.277.271V3.1a.274.274,0,0,1-.277.271h-1.054a.274.274,0,0,0-.277.271V6.178a.826.826,0,0,0,.2.588.622.622,0,0,0,.47.212,1.017,1.017,0,0,0,.648-.225.277.277,0,0,1,.409.091l.411.754a.271.271,0,0,1-.073.342,2.614,2.614,0,0,1-1.648.626,2.288,2.288,0,0,1-1.621-.618,2.191,2.191,0,0,1-.662-1.684V.271A.274.274,0,0,1,263.075,0h1.314a.274.274,0,0,1,.277.271" transform="translate(-241.772)" fill="#232323"/>
          <path id="Trazado_49" data-name="Trazado 49" d="M326.157,28.108a1.882,1.882,0,0,1-.724,1.545,2.842,2.842,0,0,1-1.838.581,5.016,5.016,0,0,1-1.547-.26,4.623,4.623,0,0,1-1.227-.6.269.269,0,0,1-.067-.379l.5-.7a.279.279,0,0,1,.38-.069,3.53,3.53,0,0,0,2,.631,1.019,1.019,0,0,0,.569-.139.425.425,0,0,0,.21-.37.533.533,0,0,0-.291-.424,3.33,3.33,0,0,0-.842-.363q-.551-.169-.842-.291a4.742,4.742,0,0,1-.662-.351,1.5,1.5,0,0,1-.755-1.363,1.773,1.773,0,0,1,.743-1.472,3.064,3.064,0,0,1,1.918-.569,4.12,4.12,0,0,1,2.122.632.271.271,0,0,1,.1.367l-.422.738a.281.281,0,0,1-.385.1,2.946,2.946,0,0,0-1.485-.431q-.86,0-.86.46a.443.443,0,0,0,.272.4,5.567,5.567,0,0,0,.9.339q.631.194.9.3a4.577,4.577,0,0,1,.637.321,1.472,1.472,0,0,1,.693,1.375" transform="translate(-295.045 -21.67)" fill="#232323"/>
          <path id="Trazado_50" data-name="Trazado 50" d="M406.263,30.793q-2.686,0-2.685-2.811v-2.95a.274.274,0,0,1,.277-.271h1.314a.274.274,0,0,1,.277.271V27.4a2.59,2.59,0,0,0,.266,1.369,1.017,1.017,0,0,0,.916.4,1.238,1.238,0,0,0,.984-.382,1.594,1.594,0,0,0,.334-1.084V25.019a.274.274,0,0,1,.277-.271h1.314a.274.274,0,0,1,.277.271v5.2a3.684,3.684,0,0,1-.922,2.665,3.147,3.147,0,0,1-2.37.957,3.511,3.511,0,0,1-1.974-.557,3.21,3.21,0,0,1-1.146-1.343.27.27,0,0,1,.142-.364l1.086-.462a.28.28,0,0,1,.362.137,1.594,1.594,0,0,0,1.5,1.037,1.381,1.381,0,0,0,1.126-.515,2.179,2.179,0,0,0,.408-1.52,3.061,3.061,0,0,1-1.77.533" transform="translate(-371.104 -22.81)" fill="#232323"/>
        </g>
      </g>
    </g>
  </g>
</svg>
